<svg width="124" height="45" viewBox="0 0 124 45" fill="none" xmlns="http://www.w3.org/2000/svg">
<path d="M11.0598 22.0096V33.7809C10.8408 33.8539 10.5488 33.9269 10.1838 33.9999C9.81883 34.1094 9.41733 34.1642 8.97933 34.1642C7.37332 34.1642 6.57031 33.4889 6.57031 32.1384V3.01127C6.57031 2.42726 6.71631 1.98926 7.00831 1.69726C7.30032 1.36876 7.75657 1.11326 8.37707 0.930753C9.43558 0.602253 10.7131 0.365003 12.2096 0.219002C13.7426 0.0730005 15.2209 0 16.6444 0C21.2799 0 24.6562 0.985506 26.7732 2.95652C28.9267 4.89103 30.0034 7.51904 30.0034 10.8406C30.0034 14.2351 28.9084 16.9543 26.7184 18.9984C24.5284 21.0059 21.1521 22.0096 16.5896 22.0096H11.0598ZM16.3159 18.2866C19.2359 18.2866 21.4989 17.6843 23.1049 16.4798C24.7109 15.2753 25.5139 13.4138 25.5139 10.8953C25.5139 8.4133 24.7292 6.60653 23.1597 5.47503C21.6266 4.30702 19.4184 3.72302 16.5349 3.72302C15.5494 3.72302 14.5639 3.77777 13.5784 3.88727C12.6293 3.96027 11.7716 4.06977 11.0051 4.21577V18.2866H16.3159Z" fill="#05F2DB"/>
<path d="M83.5813 17.4106C83.5813 15.3666 82.9973 13.8701 81.8293 12.9211C80.6978 11.9721 79.1648 11.4976 77.2303 11.4976C75.7703 11.4976 74.4745 11.6801 73.343 12.0451C72.2115 12.4101 71.2442 12.8298 70.4412 13.3043V33.7809C70.2587 33.8539 69.985 33.9269 69.62 33.9999C69.255 34.1094 68.8535 34.1642 68.4155 34.1642C66.846 34.1642 66.0612 33.5072 66.0612 32.1932V13.5233C66.0612 12.7568 66.2072 12.1363 66.4992 11.6618C66.8277 11.1508 67.3752 10.6581 68.1417 10.1836C69.0907 9.59955 70.35 9.0703 71.9195 8.5958C73.489 8.12129 75.2593 7.88404 77.2303 7.88404C80.5518 7.88404 83.1616 8.6323 85.0596 10.1288C86.9941 11.6253 87.9613 13.9796 87.9613 17.1916V33.7809C87.7788 33.8539 87.4868 33.9269 87.0853 33.9999C86.7203 34.1094 86.3371 34.1642 85.9356 34.1642C84.3661 34.1642 83.5813 33.5072 83.5813 32.1932V17.4106Z" fill="#05F2DB"/>
<path d="M113.081 31.2624C112.461 31.7734 111.603 32.2114 110.508 32.5764C109.449 32.9414 108.172 33.1239 106.675 33.1239C105.069 33.1239 103.554 32.9049 102.131 32.4669C100.707 31.9924 99.4482 31.2624 98.3532 30.2769C97.2947 29.2549 96.4369 27.9409 95.7799 26.3349C95.1594 24.7289 94.8492 22.7761 94.8492 20.4766C94.8492 18.3961 95.1594 16.5711 95.7799 15.0016C96.4004 13.4321 97.2582 12.1181 98.3532 11.0596C99.4847 10.0011 100.817 9.2163 102.35 8.7053C103.883 8.15779 105.58 7.88404 107.442 7.88404C109.121 7.88404 110.654 8.10304 112.041 8.54105C113.464 8.94255 114.651 9.45355 115.6 10.0741C116.147 10.4391 116.585 10.8588 116.914 11.3333C117.279 11.7713 117.461 12.3188 117.461 12.9758V34.9854C117.461 36.8105 117.151 38.3435 116.53 39.5845C115.946 40.862 115.107 41.884 114.012 42.6505C112.953 43.4535 111.694 44.0375 110.234 44.4025C108.774 44.7675 107.204 44.95 105.525 44.95C103.664 44.95 102.076 44.7492 100.762 44.3477C99.4847 43.9827 98.6087 43.6542 98.1342 43.3622C97.0392 42.7417 96.4917 41.957 96.4917 41.008C96.4917 40.497 96.6012 40.059 96.8202 39.694C97.0757 39.3655 97.3859 39.11 97.7509 38.9275C98.5175 39.5115 99.5942 40.0407 100.981 40.5152C102.368 41.0262 103.883 41.2817 105.525 41.2817C107.971 41.2817 109.833 40.7525 111.11 39.694C112.424 38.672 113.081 37.0112 113.081 34.7117V31.2624ZM107.168 29.5104C108.628 29.5104 109.814 29.2914 110.727 28.8534C111.676 28.3789 112.461 27.8497 113.081 27.2656V13.0306C112.461 12.6291 111.676 12.2823 110.727 11.9903C109.814 11.6618 108.719 11.4976 107.442 11.4976C104.96 11.4976 102.97 12.2458 101.474 13.7423C100.014 15.2388 99.284 17.4653 99.284 20.4219C99.284 22.0644 99.4847 23.4696 99.8862 24.6376C100.288 25.7691 100.835 26.6999 101.529 27.4299C102.259 28.1599 103.098 28.6892 104.047 29.0177C105.033 29.3462 106.073 29.5104 107.168 29.5104Z" fill="#05F2DB"/>
<rect y="1.09503" width="3.28502" height="32.8502" fill="#3940DB"/>
<rect x="120.45" y="10.9501" width="3.28502" height="32.8502" fill="#3940DB"/>
<ellipse cx="47.6326" cy="20.8051" rx="12.5926" ry="13.1401" fill="#3940DB"/>
</svg>
