<svg width="444" height="44" viewBox="0 0 444 44" fill="none" xmlns="http://www.w3.org/2000/svg">
<path d="M0 43.75V0H37.5V6.25H43.75V25H37.5V31.25H12.5V43.75H0ZM12.5 25H31.25V6.25H12.5V25ZM56.25 43.75V37.5H68.75V6.25H56.25V0H93.75V6.25H81.25V37.5H93.75V43.75H56.25ZM100 43.75V0H112.5V6.25H118.75V12.5H125V18.75H131.25V0H143.75V43.75H131.25V31.25H125V25H118.75V18.75H112.5V43.75H100ZM162.5 43.75V37.5H156.25V31.25H150V12.5H156.25V6.25H162.5V0H193.75V6.25H168.75V12.5H162.5V31.25H168.75V37.5H181.25V25H175V18.75H193.75V43.75H162.5ZM250 43.75V0H287.5V6.25H293.75V25H287.5V31.25H262.5V43.75H250ZM262.5 25H281.25V6.25H262.5V25ZM306.25 43.75V37.5H300V6.25H306.25V0H337.5V6.25H343.75V37.5H337.5V43.75H306.25ZM312.5 37.5H331.25V6.25H312.5V37.5ZM350 43.75V0H362.5V6.25H368.75V12.5H375V18.75H381.25V0H393.75V43.75H381.25V31.25H375V25H368.75V18.75H362.5V43.75H350ZM412.5 43.75V37.5H406.25V31.25H400V12.5H406.25V6.25H412.5V0H443.75V6.25H418.75V12.5H412.5V31.25H418.75V37.5H431.25V25H425V18.75H443.75V43.75H412.5Z" fill="#05F2DB"/>
</svg>
