<?xml version="1.0" encoding="UTF-8" standalone="no"?>
<svg
   xmlns:dc="http://purl.org/dc/elements/1.1/"
   xmlns:cc="http://creativecommons.org/ns#"
   xmlns:rdf="http://www.w3.org/1999/02/22-rdf-syntax-ns#"
   xmlns:svg="http://www.w3.org/2000/svg"
   xmlns="http://www.w3.org/2000/svg"
   version="1.1"
   id="svg4154"
   viewBox="0 0 595.29999 595.3"
   height="595.29999"
   width="595.29999">
  <defs
     id="defs4156" />
  <metadata
     id="metadata4159">
    <rdf:RDF>
      <cc:Work
         rdf:about="">
        <dc:format>image/svg+xml</dc:format>
        <dc:type
           rdf:resource="http://purl.org/dc/dcmitype/StillImage" />
        <dc:title></dc:title>
      </cc:Work>
    </rdf:RDF>
  </metadata>
  <g
     transform="translate(-76.635727,-260.42648)"
     id="layer1">
    <rect
       id="rect3"
       height="595.29999"
       width="595.29999"
       y="260.42648"
       x="76.635727"
       style="fill:#faf8f8" />
    <circle
       id="circle7"
       r="282.10001"
       cy="558.52655"
       cx="375.23569"
       style="fill:#faf9f9" />
    <path
       id="path9"
       d="m 527.53572,663.6265 c -1.3,-0.3 -2.6,-0.6 -3.9,-0.8 -33.6,-31 -10.6,-160.3 -10.6,-160.3 0,-197.1 -133.3,-177.8 -133.3,-177.8 -1.6,-0.1 -3.2,-0.2 -4.8,-0.2 -1.6,0.1 -3.2,0.1 -4.8,0.2 0,0 -133.4,-19.4 -133.4,177.8 0,0 22.8,129.3 -10.6,160.3 -1.3,0.2 -2.6,0.5 -3.9,0.8 -9.2,2.1 -46.5,4.8 -74.8,61.2 -9.9,24 -23.8,72.1 -26.6,104.9 -0.5,6 4.1,11.1 10.1,11.1 57.2,0 191,-0.1 244.4,-0.1 l 242.6,0 c 5.8,0 10.4,-4.8 10.1,-10.5 -1.6,-37.6 -11.1,-79.9 -25.5,-104.5 -28.1,-57.3 -65.8,-60 -75,-62.1 z m -62.2,-7.3 c -0.4,3.6 -2,7.1 -4.6,10.4 -12,15.4 -46,37.7 -86,37.7 -40,0 -73.9,-22.2 -86,-37.7 -2.6,-3.3 -4.2,-6.8 -4.6,-10.4 l 0,0 c 0.6,-0.2 2,-0.7 3.8,-1.5 0.7,-0.3 1.6,-0.7 2.4,-1.2 7.3,-3.8 18,-11.8 18,-26 l 0,0 c 11.5,11.4 24.4,20.4 38.1,26 9.2,3.6 18.8,5.7 28.7,5.7 9.9,0 19.4,-2 28.7,-5.7 13.5,-5.4 26.3,-14.3 37.8,-25.6 0.1,0 0.2,0.1 0.2,0.1 0.3,18.1 18.4,26.1 23.5,27.9 0,0.1 0,0.2 0,0.3 z m 21.1,-134.4 c -1.8,10.2 -5.8,18.6 -10,22.2 -1.7,1.4 -3.4,2.1 -5.1,1.8 -0.9,-0.2 -1.8,-0.6 -2.5,-1.3 -9.3,29.2 -27.3,58.1 -49.8,75.6 -13.2,10.2 -28,16.4 -43.6,16.4 -15.7,0 -30.6,-6.3 -43.8,-16.6 -22.4,-17.4 -40.3,-46.4 -49.6,-75.4 -0.8,0.7 -1.6,1.2 -2.5,1.3 -1.9,0.3 -4,-0.6 -5.9,-2.6 -3.9,-3.9 -7.5,-11.9 -9.2,-21.4 -2.2,-12.6 -0.5,-23.8 4,-26.9 0.6,-0.4 1.3,-0.7 1.9,-0.8 1.6,-0.3 3.2,0.3 4.9,1.6 l 0,0 c 0,0 0,-0.1 0,-0.4 0.6,-5.5 7.8,-66.7 53.7,-62.5 l 140.3,72.2 11.4,-11 c 0.4,0.1 0.8,0.2 1.1,0.4 5,2.3 7.1,14 4.7,27.4 z"
       style="fill:#d5d4d4" />
  </g>
</svg>
