<svg width="18" height="18" viewBox="0 0 18 18" fill="none" xmlns="http://www.w3.org/2000/svg">
<circle cx="9" cy="9" r="9" fill="white"/>
<path d="M12.3767 13.1507H5.62675C5.49888 13.1507 5.37624 13.2015 5.28582 13.2919C5.1954 13.3824 5.1446 13.505 5.1446 13.6329C5.1446 13.7607 5.1954 13.8834 5.28582 13.9738C5.37624 14.0642 5.49888 14.115 5.62675 14.115H12.3767C12.5046 14.115 12.6273 14.0642 12.7177 13.9738C12.8081 13.8834 12.8589 13.7607 12.8589 13.6329C12.8589 13.505 12.8081 13.3824 12.7177 13.2919C12.6273 13.2015 12.5046 13.1507 12.3767 13.1507ZM5.62675 12.1864H5.67014L7.68068 12.0032C7.90092 11.9813 8.10691 11.8842 8.26407 11.7284L12.6034 7.38912C12.7718 7.21119 12.8628 6.97375 12.8565 6.72884C12.8501 6.48392 12.747 6.2515 12.5696 6.08251L11.2485 4.76144C11.0761 4.59948 10.8502 4.50656 10.6137 4.50033C10.3772 4.49411 10.1467 4.57503 9.96603 4.72769L5.62675 9.06697C5.4709 9.22413 5.37387 9.43012 5.35193 9.65037L5.1446 11.6609C5.13811 11.7315 5.14727 11.8027 5.17144 11.8694C5.19561 11.936 5.23419 11.9966 5.28443 12.0466C5.32948 12.0913 5.38291 12.1267 5.44165 12.1506C5.50039 12.1746 5.56329 12.1868 5.62675 12.1864ZM10.5784 5.43644L11.8946 6.75269L10.9303 7.69287L9.63818 6.40072L10.5784 5.43644Z" fill="black"/>
</svg>
